<svg width="1800" height="23" viewBox="0 0 1800 23" fill="none" xmlns="http://www.w3.org/2000/svg">
<path fill-rule="evenodd" clip-rule="evenodd" d="M882 18.7379L320.995 18.738C316.847 18.7354 312.855 17.8719 309.606 16.3205L309.598 16.3166L309.59 16.3128L282.274 3.56869L282.267 3.56525C278.42 1.72977 273.831 0.763565 269.163 0.760742H269.162L0 0.76076L2.24208e-06 1.04883V4.76076V11.0488H197L202.659 4.76075L269.161 4.76074C273.308 4.76325 277.301 5.62681 280.55 7.17824L280.558 7.18212L280.566 7.18592L307.883 19.93L307.893 19.9348C311.739 21.7694 316.327 22.7352 320.993 22.738H320.995L882 22.7379L1465.9 22.738H1465.9C1470.74 22.7352 1475.5 21.7733 1479.48 19.9464L1479.49 19.9431L1507.92 7.19851L1507.93 7.19492L1507.94 7.19126C1511.34 5.6312 1515.51 4.76326 1519.85 4.76074L1597.47 4.76075L1603 10.9048H1800V4.76076V0.904785V0.760761L1519.85 0.760742H1519.85C1515.01 0.763551 1510.26 1.72544 1506.28 3.55239L1506.27 3.55567L1477.84 16.3002L1477.83 16.3038L1477.82 16.3075C1474.42 17.8675 1470.24 18.7354 1465.9 18.738L882 18.7379Z" fill="url(#paint0_linear_7225_85491)"/>
<defs>
<linearGradient id="paint0_linear_7225_85491" x1="1800" y1="-0.239122" x2="0.00816848" y2="13.3154" gradientUnits="userSpaceOnUse">
<stop stop-color="#A4C9EE" stop-opacity="0"/>
<stop offset="0.239583" stop-color="#A4C9EE"/>
<stop offset="0.494792" stop-color="#A4C9EE"/>
<stop offset="0.75" stop-color="#A4C9EE"/>
<stop offset="1" stop-color="#A4C9EE" stop-opacity="0"/>
</linearGradient>
</defs>
</svg>
